<?xml version="1.0" encoding="UTF-8"?>
<svg xmlns="http://www.w3.org/2000/svg" viewBox="0 0 1024 1024" width="1024" height="1024" role="img" aria-label="Ekloge">
<path d="M0 0 C337.92 0 675.84 0 1024 0 C1024 337.92 1024 675.84 1024 1024 C686.08 1024 348.16 1024 0 1024 C0 686.08 0 348.16 0 0 Z " fill="#e8ebe5" transform="translate(0,0)"/>
<path d="M0 0 C1.07480506 -0.00436032 2.14961013 -0.00872064 3.25698504 -0.0132131 C6.85317119 -0.02414845 10.44897227 -0.01375501 14.04515553 -0.00342751 C16.65154825 -0.00688472 19.25793952 -0.01164971 21.86432773 -0.01760924 C27.52832779 -0.0284263 33.19224202 -0.02812673 38.85624599 -0.02046776 C47.27871404 -0.00910973 55.70110981 -0.01492695 64.12357739 -0.02409268 C79.16613384 -0.03988361 94.20865205 -0.03852338 109.25121214 -0.02985594 C122.41333324 -0.0223092 135.57544032 -0.02033922 148.73756313 -0.02392387 C149.61064468 -0.02415303 150.48372623 -0.02438218 151.3832648 -0.02461828 C154.92735672 -0.02555229 158.47144863 -0.0265075 162.01554054 -0.02749758 C195.25825196 -0.03667366 228.50093902 -0.0283552 261.74364668 -0.01220688 C291.28360054 0.00203359 320.8235156 0.0007528 350.36346912 -0.01358986 C383.54991988 -0.02964915 416.73634912 -0.03602665 449.92280322 -0.02675307 C453.45950623 -0.02579091 456.99620924 -0.02485239 460.53291225 -0.02392387 C461.83915874 -0.02356803 461.83915874 -0.02356803 463.17179404 -0.02320499 C476.32834491 -0.01979104 489.48488023 -0.02378617 502.64142895 -0.03136253 C517.59706076 -0.03993197 532.55264835 -0.03781346 547.50827464 -0.0215203 C555.88079423 -0.01270018 564.25321809 -0.01215265 572.62573524 -0.02345882 C578.87030352 -0.03096239 585.1147584 -0.02284606 591.35931275 -0.0085351 C593.89074864 -0.00517286 596.4221973 -0.00691354 598.95362505 -0.01416247 C602.38478548 -0.02323722 605.81541894 -0.01397629 609.24655151 0 C610.23764592 -0.0070235 611.22874032 -0.014047 612.24986789 -0.02128333 C618.77412498 0.03211451 623.52414368 0.92152285 628.9306078 4.81502342 C633.02613187 9.25461591 633.38451263 12.62379349 633.22675037 18.53572655 C632.78488 22.83261137 631.39771203 26.25008098 629.55951405 30.12752342 C629.1715868 30.98982567 628.78365955 31.85212791 628.38397694 32.74056053 C626.9241453 35.96402735 625.42965031 39.17027862 623.93451405 42.37752342 C622.58443432 45.29958377 621.23831451 48.22346731 619.8915453 51.14705467 C617.60307863 56.11111449 615.31109234 61.07348963 613.00970936 66.03157616 C608.16995837 76.46696747 603.43061232 86.9404554 598.79077625 97.46617699 C595.85832683 104.11202266 592.89931774 110.746061 589.93451405 117.37752342 C589.59015308 118.14888634 589.24579212 118.92024925 588.89099598 119.7149868 C586.7905525 124.41308952 584.66795967 129.10019017 582.51685047 133.77532005 C581.84973912 135.23221316 581.18878943 136.6919475 580.53479481 138.15477562 C575.39715859 149.62681705 569.57340669 160.01538294 557.68451405 165.44002342 C556.5243578 165.98787498 555.36420155 166.53572655 554.16888905 167.10017967 C549.82638544 168.81515392 545.92272579 169.50195122 541.26802307 169.50632459 C540.35240429 169.50959678 539.4367855 169.51286898 538.49342069 169.51624033 C536.99477644 169.51401489 536.99477644 169.51401489 535.46585655 169.5117445 C533.85932084 169.51527284 533.85932084 169.51527284 532.22032985 169.51887247 C528.6070272 169.5255655 524.99376049 169.52510416 521.38045216 169.52469444 C518.77353865 169.52799285 516.16662565 169.53171837 513.5597133 169.53583592 C507.13085724 169.5451616 500.70200807 169.5490839 494.27314609 169.55135489 C486.57425417 169.55431694 478.87537139 169.56301422 471.17648427 169.57176917 C452.57002968 169.59261182 433.96357351 169.60308211 415.35710997 169.61189878 C406.55806895 169.61610455 397.75902862 169.62132655 388.95998818 169.6265833 C358.84900286 169.64447113 328.73801735 169.65946889 298.62702751 169.6669035 C296.7367797 169.66737825 294.84653189 169.66785414 292.95628407 169.66833116 C292.01888231 169.66856753 291.08148055 169.66880391 290.11567268 169.66904745 C285.36624024 169.67024866 280.61680781 169.67146411 275.86737537 169.67268944 C274.92483378 169.67292959 273.98229218 169.67316974 273.01118872 169.67341716 C242.43338053 169.68131479 211.85561107 169.70475739 181.27781979 169.73724538 C148.96005213 169.77151949 116.64230715 169.79125226 84.32452101 169.79454774 C80.77905173 169.79496529 77.23358247 169.79544485 73.68811321 169.79597092 C72.81509915 169.79609411 71.94208508 169.7962173 71.04261605 169.79634422 C56.97661006 169.79867896 42.91064898 169.8143538 28.84465901 169.83481276 C14.71597466 169.8550375 0.58734442 169.86056393 -13.54135173 169.85104213 C-21.94075319 169.84581452 -30.33997488 169.85176391 -38.73935058 169.8735768 C-45.00235513 169.8886162 -51.26517597 169.88288501 -57.52817935 169.86890628 C-60.06849976 169.86651128 -62.60883721 169.87095056 -65.14913141 169.88273493 C-68.59006382 169.89771479 -72.03007886 169.88827712 -75.47098732 169.87250805 C-76.46774232 169.88273026 -77.46449732 169.89295246 -78.49145702 169.90348443 C-84.19850792 169.84601501 -87.56595832 169.24400568 -92.06548595 165.37752342 C-96.44903085 160.40160759 -97.60712243 157.31142684 -97.5303297 150.74031639 C-96.57278384 143.81319628 -93.10079404 137.6638001 -90.06548595 131.44002342 C-89.33163084 129.8944916 -88.60031802 128.34775038 -87.87139416 126.7998867 C-86.73839469 124.39401587 -85.60419007 121.98883468 -84.4625349 119.58705711 C-80.90801336 112.10178304 -77.54881579 104.53723532 -74.21856213 96.95015526 C-67.99619376 82.78817073 -61.57884051 68.72033998 -55.06548595 54.69002342 C-54.6721104 53.84260582 -54.27873486 52.99518822 -53.87343884 52.12209129 C-51.9984602 48.08590931 -50.11868295 44.05205728 -48.23150158 40.02156639 C-46.76506176 36.88759999 -45.31817897 33.74554458 -43.88384533 30.5967617 C-43.35379894 29.44387909 -43.35379894 29.44387909 -42.81304455 28.26770592 C-42.15173134 26.82923395 -41.49597923 25.38818522 -40.84722424 23.94400597 C-36.34379548 14.20475143 -28.96975732 6.41792709 -18.87027843 2.53312971 C-12.4675307 0.47493629 -6.69878914 -0.04781051 0 0 Z " fill="#087b76" transform="translate(244.06548595428467,313.6224765777588)"/>
<path d="M0 0 C0.81225289 -0.00465992 1.62450579 -0.00931984 2.46137241 -0.01412097 C5.17047475 -0.02602762 7.87907156 -0.01669242 10.58817768 -0.00736332 C12.55507709 -0.0115381 14.52197409 -0.01701641 16.48886663 -0.02368313 C21.88414603 -0.03813685 27.27927266 -0.03389323 32.67456043 -0.02651632 C38.49667188 -0.02178695 44.31875018 -0.03429228 50.14085102 -0.04453373 C61.54171392 -0.06172999 72.94252174 -0.06256023 84.34339424 -0.05732083 C93.60705529 -0.05328041 102.87070005 -0.05472114 112.13436031 -0.06006908 C113.45248052 -0.06081751 114.77060072 -0.06156593 116.12866396 -0.06233703 C118.13502934 -0.06348223 120.14139471 -0.06463211 122.14776008 -0.06579627 C140.79579154 -0.07649824 159.44381698 -0.08122937 178.09185028 -0.07332611 C178.79454631 -0.07302894 179.49724234 -0.07273176 180.22123219 -0.07242559 C185.92751207 -0.06997668 191.63379188 -0.06736508 197.34007169 -0.06474145 C219.60943256 -0.05463396 241.87871806 -0.06300516 264.14806843 -0.086236 C289.17114818 -0.11229727 314.19418256 -0.12516004 339.21727639 -0.11804825 C352.46584337 -0.11449101 365.71435106 -0.11682264 378.96290874 -0.13429928 C390.23760577 -0.14898762 401.51219726 -0.14970057 412.78689214 -0.13222837 C418.54154635 -0.12368934 424.29601173 -0.12163963 430.05065632 -0.13687992 C435.31518856 -0.15065003 440.57936885 -0.14606326 445.84388033 -0.12664068 C447.75151058 -0.12285677 449.65916852 -0.12587085 451.56677427 -0.13625234 C454.15442602 -0.14933692 456.74084753 -0.13791583 459.32844543 -0.12025452 C460.07377916 -0.12990503 460.81911288 -0.13955554 461.58703247 -0.14949849 C466.6824103 -0.07780267 469.5398533 1.19523854 473.47546101 4.38031673 C477.82995375 9.32325445 479.04145397 12.42531182 478.92297077 18.96503353 C478.41065114 22.87492954 477.20989942 25.60223703 475.47155476 29.13812923 C474.82694171 30.47045448 474.18292436 31.80306806 473.53942585 33.13593197 C473.20038227 33.83024319 472.86133869 34.52455441 472.51202106 35.23990536 C470.76754179 38.84211177 469.09495453 42.47730001 467.41686726 46.11078548 C466.70230493 47.65271357 465.98770455 49.19462402 465.27306843 50.73651791 C464.52784254 52.3468629 463.78281156 53.9572981 463.03796101 55.56781673 C462.65072865 56.40503262 462.26349628 57.2422485 461.86452961 58.10483456 C456.192232 70.38017561 450.6288261 82.69928067 445.16296101 95.06781673 C438.86452062 109.31668711 432.44566852 123.49804713 425.78991413 137.5844183 C424.64151407 140.02711471 423.51533943 142.47830934 422.39733601 144.93500423 C416.83481535 156.95331913 409.85331971 163.44624616 397.47546101 168.38031673 C393.14379439 169.49992397 388.8874641 169.52334334 384.44311333 169.51453781 C383.63547581 169.51689004 382.82783829 169.51924227 381.99572691 169.52166578 C379.27839193 169.52834439 376.56110489 169.5278979 373.8437624 169.52748775 C371.88031756 169.53078706 369.91687341 169.53451276 367.95343012 169.53862923 C362.54916039 169.54864924 357.14490177 169.55236601 351.74062407 169.55501854 C345.91572543 169.55892141 340.09083559 169.56849954 334.26594257 169.57723141 C320.19743095 169.5969929 306.12891861 169.60706013 292.06039658 169.6159592 C285.43895413 169.62034128 278.81751249 169.62570817 272.19607067 169.63094807 C250.1932479 169.64795752 228.19042562 169.66247849 206.18759727 169.66969681 C204.76497305 169.67017157 203.34234883 169.67064745 201.91972461 169.67112447 C201.21423158 169.67136085 200.50873854 169.67159722 199.78186693 169.67184076 C196.20748227 169.67304196 192.63309761 169.67425741 189.05871296 169.67548275 C188.34936682 169.6757229 187.64002069 169.67596305 186.90917921 169.67621048 C163.89764719 169.68410778 140.88616664 169.70755031 117.87465711 169.74003869 C93.5485452 169.77432045 69.22246343 169.79404626 44.89632696 169.79734105 C31.6342778 169.79941564 18.37230117 169.8083036 5.11027431 169.83380222 C-6.17914813 169.85545793 -17.46847648 169.86358485 -28.75791734 169.85383544 C-34.52065224 169.84927629 -40.28319278 169.85127067 -46.0459013 169.87059689 C-51.31798212 169.8881256 -56.5897253 169.88731497 -61.8618092 169.87169959 C-63.77225591 169.86930785 -65.68272538 169.87372749 -67.59313714 169.88552824 C-70.18462237 169.90054863 -72.77489588 169.89104363 -75.36635017 169.87530136 C-76.11282728 169.88552357 -76.8593044 169.89574578 -77.62840202 169.90627775 C-82.72559157 169.83842329 -85.60406801 168.5951941 -89.52453899 165.38031673 C-93.60438875 159.97727247 -94.98995867 156.15645974 -94.52453899 149.38031673 C-93.57229859 146.7422621 -92.58811833 144.37203221 -91.36828899 141.86859798 C-90.86804714 140.79949436 -90.86804714 140.79949436 -90.35769939 139.70879269 C-89.63624536 138.17042456 -88.90879122 136.63485883 -88.17596722 135.10187435 C-86.59795645 131.8003061 -85.04916064 128.48531393 -83.49893475 125.17063046 C-82.69391676 123.44949616 -81.88748427 121.7290228 -81.07968426 120.00919247 C-77.47694669 112.32624828 -74.02563835 104.58139401 -70.6099577 96.81387997 C-63.63624147 80.95876352 -56.41316194 65.22630153 -49.0816679 49.53363705 C-48.3216151 47.90446331 -47.56168417 46.27523272 -46.80188274 44.64594173 C-46.43594006 43.86312832 -46.06999737 43.0803149 -45.69296551 42.27377987 C-43.92781704 38.4788721 -42.20543207 34.67307657 -40.56555462 30.82221127 C-40.25622494 30.09765743 -39.94689526 29.3731036 -39.62819195 28.62659359 C-39.05855884 27.28209946 -38.49606451 25.93454491 -37.94273663 24.58325863 C-34.02283415 15.31225917 -26.5339608 7.84331735 -17.52453899 3.38031673 C-11.5917629 1.01082665 -6.36906503 -0.05812264 0 0 Z " fill="#7557ad" transform="translate(205.52453899383545,550.619683265686)"/>
</svg>
